<svg xmlns="http://www.w3.org/2000/svg" width="240" height="50"><defs><style>.cls-1 { fill: #ffd400; fill-rule: evenodd; }</style></defs><path d="M.18 26.6s-1.5 17.26 20.1 21.55c0 0 2.5.3 3 .3l20.97.3V30.8s2.4 12.17 12.3 16.16a26.1 26.1 0 0 0 16.18 2.7c8.8-1.6 14.6-6.1 17.7-12.58l-1.8 11.37 16.47.3 2.4-20.94-31.17-.3s-.2 5.6-6.9 6.9c-7.8.3-8.5-6.6-8.4-6.9s0 .3 0 .3l-33.27-.6v6.9s-7.7 1.25-9.6-3.6a10.04 10.04 0 0 1-.9-3.3zm-.1-.92s-2.24-15 16-21.8a30.84 30.84 0 0 1 9.58-1.5h18.6v17.35A23.33 23.33 0 0 1 55.63 4.47c9.83-5.56 21.88-1.8 21.88-1.8s9.2 2.76 14.1 13.47l1.5 5.98 3-19.74h17.4l6.3 22.43L127 2.4h16.8l3 18.54A24.9 24.9 0 0 1 161.46 3c12.77-5.33 24.88 1.44 27.28 4.5 2.42 2.46 6.05 7.04 6.9 11.65l.3-17.05 19.78.3s14.63-.6 21.88 12.56A28.04 28.04 0 0 1 240 25.7l-17.1-.27a8.2 8.2 0 0 0-2.7-6.87c-3.22-2.7-7.78-2.1-7.78-2.1v8.98l-33.28-.3a8.2 8.2 0 0 0-3-6.87c-3.4-2.57-10.43-2.15-12.3 5.1v1.5H132.7l-.3-1.8-.6 1.8h-23.4l-.6-1.8-.3 1.8-30.88.3h-.3s-.18-5.16-3-6.6c0 0-3.1-3.7-9.3-.3a8.04 8.04 0 0 0-3 7.13l-33.26.35V16.8s-4.14-.25-6 .6-4.62 2.32-4.5 7.76v.6zM109 27.8l6.3 20.95h9.3l6.3-20.94H109zm23.98 0l2.4 20.65 15.6.3-1.5-11.37s5.73 11.07 16.78 12.27 18.15-1.54 23.08-6.6a28.8 28.8 0 0 0 6.6-11.65v17.05l20.98.3s8.82-.94 13.8-4.8 9.2-10.57 9.28-17.33l-17.1.3s.9 5.67-6.9 7.47h-3.6l.13-6.84-33.4-.06s.52 4.02-5.4 6.9a7.86 7.86 0 0 1-8.08-2.7 13.6 13.6 0 0 1-1.9-3.87c-.2-.02-30.77-.02-30.77-.02z" class="cls-1"/></svg>